<?xml version="1.0" encoding="UTF-8" standalone="no"?>
<!DOCTYPE svg PUBLIC "-//W3C//DTD SVG 1.1//EN"
 "http://www.w3.org/Graphics/SVG/1.1/DTD/svg11.dtd">
<!-- Generated by graphviz version 2.43.0 (0)
 -->
<!-- Title: G Pages: 1 -->
<svg width="2305pt" height="548pt"
 viewBox="0.00 0.00 2305.19 548.00" xmlns="http://www.w3.org/2000/svg" xmlns:xlink="http://www.w3.org/1999/xlink">
<g id="graph0" class="graph" transform="scale(1 1) rotate(0) translate(4 544)">
<title>G</title>
<polygon fill="white" stroke="transparent" points="-4,4 -4,-544 2301.19,-544 2301.19,4 -4,4"/>
<!-- identityandorigin -->
<g id="node1" class="node">
<title>identityandorigin</title>
<ellipse fill="none" stroke="black" cx="866.05" cy="-90" rx="94.78" ry="18"/>
<text text-anchor="middle" x="866.05" y="-86.3" font-family="sans-serif" font-size="14.00">identity&#45;and&#45;origin</text>
</g>
<!-- personofnationality -->
<g id="node2" class="node">
<title>personofnationality</title>
<ellipse fill="none" stroke="black" cx="468.05" cy="-18" rx="104.78" ry="18"/>
<text text-anchor="middle" x="468.05" y="-14.3" font-family="sans-serif" font-size="14.00">person&#45;of&#45;nationality</text>
</g>
<!-- identityandorigin&#45;&gt;personofnationality -->
<g id="edge1" class="edge">
<title>identityandorigin&#45;&gt;personofnationality</title>
<path fill="none" stroke="black" d="M798.98,-77.2C729.9,-65.05 622.21,-46.11 548.56,-33.16"/>
<polygon fill="black" stroke="black" points="548.86,-29.66 538.4,-31.37 547.65,-36.55 548.86,-29.66"/>
</g>
<!-- religiousidentity -->
<g id="node39" class="node">
<title>religiousidentity</title>
<ellipse fill="none" stroke="black" cx="677.05" cy="-18" rx="86.38" ry="18"/>
<text text-anchor="middle" x="677.05" y="-14.3" font-family="sans-serif" font-size="14.00">religious&#45;identity</text>
</g>
<!-- identityandorigin&#45;&gt;religiousidentity -->
<g id="edge19" class="edge">
<title>identityandorigin&#45;&gt;religiousidentity</title>
<path fill="none" stroke="black" d="M824.57,-73.64C795.84,-63 757.44,-48.78 727.03,-37.51"/>
<polygon fill="black" stroke="black" points="728.05,-34.16 717.45,-33.97 725.61,-40.72 728.05,-34.16"/>
</g>
<!-- regionalidentity -->
<g id="node45" class="node">
<title>regionalidentity</title>
<ellipse fill="none" stroke="black" cx="866.05" cy="-18" rx="84.49" ry="18"/>
<text text-anchor="middle" x="866.05" y="-14.3" font-family="sans-serif" font-size="14.00">regional&#45;identity</text>
</g>
<!-- identityandorigin&#45;&gt;regionalidentity -->
<g id="edge24" class="edge">
<title>identityandorigin&#45;&gt;regionalidentity</title>
<path fill="none" stroke="black" d="M866.05,-71.7C866.05,-63.98 866.05,-54.71 866.05,-46.11"/>
<polygon fill="black" stroke="black" points="869.55,-46.1 866.05,-36.1 862.55,-46.1 869.55,-46.1"/>
</g>
<!-- foreigner -->
<g id="node53" class="node">
<title>foreigner</title>
<ellipse fill="none" stroke="black" cx="1020.05" cy="-18" rx="51.99" ry="18"/>
<text text-anchor="middle" x="1020.05" y="-14.3" font-family="sans-serif" font-size="14.00">foreigner</text>
</g>
<!-- identityandorigin&#45;&gt;foreigner -->
<g id="edge61" class="edge">
<title>identityandorigin&#45;&gt;foreigner</title>
<path fill="none" stroke="black" d="M900.99,-73.12C924.65,-62.36 955.95,-48.13 980.52,-36.97"/>
<polygon fill="black" stroke="black" points="982.26,-40.02 989.92,-32.7 979.36,-33.65 982.26,-40.02"/>
</g>
<!-- inhabitant -->
<g id="node57" class="node">
<title>inhabitant</title>
<ellipse fill="none" stroke="black" cx="1147.05" cy="-18" rx="56.59" ry="18"/>
<text text-anchor="middle" x="1147.05" y="-14.3" font-family="sans-serif" font-size="14.00">inhabitant</text>
</g>
<!-- identityandorigin&#45;&gt;inhabitant -->
<g id="edge51" class="edge">
<title>identityandorigin&#45;&gt;inhabitant</title>
<path fill="none" stroke="black" d="M922.22,-75.32C965.62,-64.71 1027.18,-49.58 1081.05,-36 1085.42,-34.9 1089.96,-33.74 1094.52,-32.58"/>
<polygon fill="black" stroke="black" points="1095.64,-35.91 1104.46,-30.04 1093.9,-29.13 1095.64,-35.91"/>
</g>
<!-- recipient -->
<g id="node3" class="node">
<title>recipient</title>
<ellipse fill="none" stroke="black" cx="50.05" cy="-162" rx="50.09" ry="18"/>
<text text-anchor="middle" x="50.05" y="-158.3" font-family="sans-serif" font-size="14.00">recipient</text>
</g>
<!-- supernaturalbeing -->
<g id="node4" class="node">
<title>supernaturalbeing</title>
<ellipse fill="none" stroke="black" cx="1248.05" cy="-450" rx="96.68" ry="18"/>
<text text-anchor="middle" x="1248.05" y="-446.3" font-family="sans-serif" font-size="14.00">supernatural&#45;being</text>
</g>
<!-- scholar -->
<g id="node5" class="node">
<title>scholar</title>
<ellipse fill="none" stroke="black" cx="249.05" cy="-90" rx="43.59" ry="18"/>
<text text-anchor="middle" x="249.05" y="-86.3" font-family="sans-serif" font-size="14.00">scholar</text>
</g>
<!-- person -->
<g id="node6" class="node">
<title>person</title>
<ellipse fill="none" stroke="black" cx="975.05" cy="-234" rx="42.49" ry="18"/>
<text text-anchor="middle" x="975.05" y="-230.3" font-family="sans-serif" font-size="14.00">person</text>
</g>
<!-- person&#45;&gt;recipient -->
<g id="edge30" class="edge">
<title>person&#45;&gt;recipient</title>
<path fill="none" stroke="black" d="M932.76,-233.68C806.55,-235 421.87,-233.97 109.05,-180 104.67,-179.25 100.16,-178.29 95.67,-177.21"/>
<polygon fill="black" stroke="black" points="96.51,-173.81 85.95,-174.7 94.76,-180.59 96.51,-173.81"/>
</g>
<!-- consumer -->
<g id="node7" class="node">
<title>consumer</title>
<ellipse fill="none" stroke="black" cx="174.05" cy="-162" rx="55.79" ry="18"/>
<text text-anchor="middle" x="174.05" y="-158.3" font-family="sans-serif" font-size="14.00">consumer</text>
</g>
<!-- person&#45;&gt;consumer -->
<g id="edge2" class="edge">
<title>person&#45;&gt;consumer</title>
<path fill="none" stroke="black" d="M932.82,-232.67C819.64,-231.19 500.36,-223.2 239.05,-180 234.07,-179.18 228.91,-178.15 223.79,-177"/>
<polygon fill="black" stroke="black" points="224.56,-173.59 214.02,-174.69 222.94,-180.4 224.56,-173.59"/>
</g>
<!-- unfortunate -->
<g id="node9" class="node">
<title>unfortunate</title>
<ellipse fill="none" stroke="black" cx="312.05" cy="-162" rx="64.19" ry="18"/>
<text text-anchor="middle" x="312.05" y="-158.3" font-family="sans-serif" font-size="14.00">unfortunate</text>
</g>
<!-- person&#45;&gt;unfortunate -->
<g id="edge5" class="edge">
<title>person&#45;&gt;unfortunate</title>
<path fill="none" stroke="black" d="M933.03,-231.18C836.1,-226.57 589.6,-212.38 386.05,-180 380.29,-179.08 374.32,-177.98 368.37,-176.77"/>
<polygon fill="black" stroke="black" points="368.94,-173.32 358.44,-174.67 367.5,-180.17 368.94,-173.32"/>
</g>
<!-- official -->
<g id="node12" class="node">
<title>official</title>
<ellipse fill="none" stroke="black" cx="435.05" cy="-162" rx="40.09" ry="18"/>
<text text-anchor="middle" x="435.05" y="-158.3" font-family="sans-serif" font-size="14.00">official</text>
</g>
<!-- person&#45;&gt;official -->
<g id="edge48" class="edge">
<title>person&#45;&gt;official</title>
<path fill="none" stroke="black" d="M933.14,-231.67C847.7,-228.26 647.6,-216.7 484.05,-180 480.84,-179.28 477.55,-178.42 474.27,-177.47"/>
<polygon fill="black" stroke="black" points="475.12,-174.07 464.53,-174.44 473.04,-180.76 475.12,-174.07"/>
</g>
<!-- professional -->
<g id="node17" class="node">
<title>professional</title>
<ellipse fill="none" stroke="black" cx="559.05" cy="-162" rx="65.79" ry="18"/>
<text text-anchor="middle" x="559.05" y="-158.3" font-family="sans-serif" font-size="14.00">professional</text>
</g>
<!-- person&#45;&gt;professional -->
<g id="edge7" class="edge">
<title>person&#45;&gt;professional</title>
<path fill="none" stroke="black" d="M935.13,-227.77C871.14,-219.16 741.76,-200.88 633.05,-180 627.71,-178.97 622.17,-177.84 616.63,-176.65"/>
<polygon fill="black" stroke="black" points="617.22,-173.2 606.71,-174.48 615.73,-180.04 617.22,-173.2"/>
</g>
<!-- user -->
<g id="node18" class="node">
<title>user</title>
<ellipse fill="none" stroke="black" cx="673.05" cy="-162" rx="30.59" ry="18"/>
<text text-anchor="middle" x="673.05" y="-158.3" font-family="sans-serif" font-size="14.00">user</text>
</g>
<!-- person&#45;&gt;user -->
<g id="edge8" class="edge">
<title>person&#45;&gt;user</title>
<path fill="none" stroke="black" d="M935.36,-227.53C883.49,-219.81 790.17,-203.92 713.05,-180 710.65,-179.26 708.2,-178.42 705.75,-177.53"/>
<polygon fill="black" stroke="black" points="707.03,-174.27 696.44,-173.88 704.47,-180.78 707.03,-174.27"/>
</g>
<!-- athlete -->
<g id="node23" class="node">
<title>athlete</title>
<ellipse fill="none" stroke="black" cx="764.05" cy="-162" rx="42.49" ry="18"/>
<text text-anchor="middle" x="764.05" y="-158.3" font-family="sans-serif" font-size="14.00">athlete</text>
</g>
<!-- person&#45;&gt;athlete -->
<g id="edge10" class="edge">
<title>person&#45;&gt;athlete</title>
<path fill="none" stroke="black" d="M942.56,-222.26C910.23,-211.56 859.2,-194.67 815.05,-180 811.99,-178.98 808.83,-177.93 805.65,-176.88"/>
<polygon fill="black" stroke="black" points="806.74,-173.55 796.15,-173.71 804.53,-180.19 806.74,-173.55"/>
</g>
<!-- femaleperson -->
<g id="node25" class="node">
<title>femaleperson</title>
<ellipse fill="none" stroke="black" cx="900.05" cy="-162" rx="76.09" ry="18"/>
<text text-anchor="middle" x="900.05" y="-158.3" font-family="sans-serif" font-size="14.00">female&#45;person</text>
</g>
<!-- person&#45;&gt;femaleperson -->
<g id="edge29" class="edge">
<title>person&#45;&gt;femaleperson</title>
<path fill="none" stroke="black" d="M958.03,-217.12C948.36,-208.09 936.07,-196.62 925.3,-186.57"/>
<polygon fill="black" stroke="black" points="927.48,-183.82 917.78,-179.55 922.7,-188.93 927.48,-183.82"/>
</g>
<!-- addressee -->
<g id="node27" class="node">
<title>addressee</title>
<ellipse fill="none" stroke="black" cx="1051.05" cy="-162" rx="57.39" ry="18"/>
<text text-anchor="middle" x="1051.05" y="-158.3" font-family="sans-serif" font-size="14.00">addressee</text>
</g>
<!-- person&#45;&gt;addressee -->
<g id="edge14" class="edge">
<title>person&#45;&gt;addressee</title>
<path fill="none" stroke="black" d="M991.91,-217.46C1001.93,-208.24 1014.83,-196.36 1026.02,-186.05"/>
<polygon fill="black" stroke="black" points="1028.45,-188.57 1033.43,-179.22 1023.71,-183.42 1028.45,-188.57"/>
</g>
<!-- traveller -->
<g id="node31" class="node">
<title>traveller</title>
<ellipse fill="none" stroke="black" cx="1174.05" cy="-162" rx="48.19" ry="18"/>
<text text-anchor="middle" x="1174.05" y="-158.3" font-family="sans-serif" font-size="14.00">traveller</text>
</g>
<!-- person&#45;&gt;traveller -->
<g id="edge33" class="edge">
<title>person&#45;&gt;traveller</title>
<path fill="none" stroke="black" d="M1006.58,-221.91C1040.08,-210.12 1093.27,-191.41 1130.7,-178.25"/>
<polygon fill="black" stroke="black" points="1132.06,-181.48 1140.33,-174.86 1129.74,-174.88 1132.06,-181.48"/>
</g>
<!-- personreln -->
<g id="node35" class="node">
<title>personreln</title>
<ellipse fill="none" stroke="black" cx="1302.05" cy="-162" rx="62.29" ry="18"/>
<text text-anchor="middle" x="1302.05" y="-158.3" font-family="sans-serif" font-size="14.00">person&#45;reln</text>
</g>
<!-- person&#45;&gt;personreln -->
<g id="edge31" class="edge">
<title>person&#45;&gt;personreln</title>
<path fill="none" stroke="black" d="M1006.39,-221.74C1012.84,-219.66 1019.62,-217.63 1026.05,-216 1115.73,-193.31 1140.47,-198.78 1231.05,-180 1236.04,-178.97 1241.21,-177.84 1246.39,-176.67"/>
<polygon fill="black" stroke="black" points="1247.35,-180.04 1256.31,-174.39 1245.78,-173.22 1247.35,-180.04"/>
</g>
<!-- referentialperson -->
<g id="node40" class="node">
<title>referentialperson</title>
<ellipse fill="none" stroke="black" cx="1473.05" cy="-162" rx="90.98" ry="18"/>
<text text-anchor="middle" x="1473.05" y="-158.3" font-family="sans-serif" font-size="14.00">referential&#45;person</text>
</g>
<!-- person&#45;&gt;referentialperson -->
<g id="edge20" class="edge">
<title>person&#45;&gt;referentialperson</title>
<path fill="none" stroke="black" d="M1005.76,-221.56C1012.38,-219.44 1019.39,-217.44 1026.05,-216 1177.61,-183.29 1219.42,-201 1373.05,-180 1381.2,-178.89 1389.7,-177.61 1398.16,-176.27"/>
<polygon fill="black" stroke="black" points="1398.74,-179.73 1408.05,-174.68 1397.62,-172.82 1398.74,-179.73"/>
</g>
<!-- familyrelation -->
<g id="node43" class="node">
<title>familyrelation</title>
<ellipse fill="none" stroke="black" cx="1657.05" cy="-162" rx="75.29" ry="18"/>
<text text-anchor="middle" x="1657.05" y="-158.3" font-family="sans-serif" font-size="14.00">family&#45;relation</text>
</g>
<!-- person&#45;&gt;familyrelation -->
<g id="edge21" class="edge">
<title>person&#45;&gt;familyrelation</title>
<path fill="none" stroke="black" d="M1005.45,-221.46C1012.15,-219.31 1019.27,-217.33 1026.05,-216 1265.12,-169.09 1331.55,-212.24 1573.05,-180 1579.78,-179.1 1586.79,-177.98 1593.76,-176.75"/>
<polygon fill="black" stroke="black" points="1594.71,-180.13 1603.9,-174.87 1593.43,-173.25 1594.71,-180.13"/>
</g>
<!-- scout -->
<g id="node51" class="node">
<title>scout</title>
<ellipse fill="none" stroke="black" cx="1785.05" cy="-162" rx="35.19" ry="18"/>
<text text-anchor="middle" x="1785.05" y="-158.3" font-family="sans-serif" font-size="14.00">scout</text>
</g>
<!-- person&#45;&gt;scout -->
<g id="edge60" class="edge">
<title>person&#45;&gt;scout</title>
<path fill="none" stroke="black" d="M1005.43,-221.38C1012.13,-219.24 1019.26,-217.28 1026.05,-216 1338.74,-157.15 1429.82,-246.17 1741.05,-180 1743.9,-179.39 1746.81,-178.63 1749.71,-177.76"/>
<polygon fill="black" stroke="black" points="1751.05,-180.99 1759.41,-174.47 1748.81,-174.36 1751.05,-180.99"/>
</g>
<!-- entrant -->
<g id="node52" class="node">
<title>entrant</title>
<ellipse fill="none" stroke="black" cx="1882.05" cy="-162" rx="44.39" ry="18"/>
<text text-anchor="middle" x="1882.05" y="-158.3" font-family="sans-serif" font-size="14.00">entrant</text>
</g>
<!-- person&#45;&gt;entrant -->
<g id="edge62" class="edge">
<title>person&#45;&gt;entrant</title>
<path fill="none" stroke="black" d="M1005.43,-221.35C1012.13,-219.21 1019.25,-217.26 1026.05,-216 1377.31,-150.89 1477.42,-243.11 1829.05,-180 1832.89,-179.31 1836.85,-178.41 1840.79,-177.39"/>
<polygon fill="black" stroke="black" points="1841.78,-180.75 1850.44,-174.64 1839.87,-174.01 1841.78,-180.75"/>
</g>
<!-- maleperson -->
<g id="node56" class="node">
<title>maleperson</title>
<ellipse fill="none" stroke="black" cx="2038.05" cy="-162" rx="67.69" ry="18"/>
<text text-anchor="middle" x="2038.05" y="-158.3" font-family="sans-serif" font-size="14.00">male&#45;person</text>
</g>
<!-- person&#45;&gt;maleperson -->
<g id="edge34" class="edge">
<title>person&#45;&gt;maleperson</title>
<path fill="none" stroke="black" d="M1005.42,-221.32C1012.12,-219.19 1019.25,-217.24 1026.05,-216 1423.78,-143.35 1532.81,-221 1935.05,-180 1947.98,-178.68 1961.75,-176.77 1974.87,-174.7"/>
<polygon fill="black" stroke="black" points="1975.45,-178.15 1984.76,-173.09 1974.32,-171.24 1975.45,-178.15"/>
</g>
<!-- animal -->
<g id="node8" class="node">
<title>animal</title>
<ellipse fill="none" stroke="black" cx="1404.05" cy="-450" rx="40.89" ry="18"/>
<text text-anchor="middle" x="1404.05" y="-446.3" font-family="sans-serif" font-size="14.00">animal</text>
</g>
<!-- invertebrate -->
<g id="node20" class="node">
<title>invertebrate</title>
<ellipse fill="none" stroke="black" cx="962.05" cy="-378" rx="66.09" ry="18"/>
<text text-anchor="middle" x="962.05" y="-374.3" font-family="sans-serif" font-size="14.00">invertebrate</text>
</g>
<!-- animal&#45;&gt;invertebrate -->
<g id="edge52" class="edge">
<title>animal&#45;&gt;invertebrate</title>
<path fill="none" stroke="black" d="M1373.91,-437.71C1367.43,-435.57 1360.56,-433.53 1354.05,-432 1244.64,-406.26 1114.92,-391.77 1035.57,-384.67"/>
<polygon fill="black" stroke="black" points="1035.46,-381.14 1025.19,-383.75 1034.84,-388.12 1035.46,-381.14"/>
</g>
<!-- vertebrate -->
<g id="node24" class="node">
<title>vertebrate</title>
<ellipse fill="none" stroke="black" cx="1277.05" cy="-378" rx="57.69" ry="18"/>
<text text-anchor="middle" x="1277.05" y="-374.3" font-family="sans-serif" font-size="14.00">vertebrate</text>
</g>
<!-- animal&#45;&gt;vertebrate -->
<g id="edge12" class="edge">
<title>animal&#45;&gt;vertebrate</title>
<path fill="none" stroke="black" d="M1379.56,-435.5C1360.85,-425.19 1334.76,-410.81 1313.58,-399.14"/>
<polygon fill="black" stroke="black" points="1314.99,-395.92 1304.54,-394.16 1311.61,-402.05 1314.99,-395.92"/>
</g>
<!-- patient -->
<g id="node10" class="node">
<title>patient</title>
<ellipse fill="none" stroke="black" cx="145.05" cy="-90" rx="42.49" ry="18"/>
<text text-anchor="middle" x="145.05" y="-86.3" font-family="sans-serif" font-size="14.00">patient</text>
</g>
<!-- unfortunate&#45;&gt;patient -->
<g id="edge3" class="edge">
<title>unfortunate&#45;&gt;patient</title>
<path fill="none" stroke="black" d="M277.85,-146.67C250.41,-135.17 211.91,-119.03 183.43,-107.09"/>
<polygon fill="black" stroke="black" points="184.76,-103.85 174.18,-103.21 182.05,-110.31 184.76,-103.85"/>
</g>
<!-- mammal -->
<g id="node11" class="node">
<title>mammal</title>
<ellipse fill="none" stroke="black" cx="1128.05" cy="-306" rx="50.09" ry="18"/>
<text text-anchor="middle" x="1128.05" y="-302.3" font-family="sans-serif" font-size="14.00">mammal</text>
</g>
<!-- mammal&#45;&gt;person -->
<g id="edge4" class="edge">
<title>mammal&#45;&gt;person</title>
<path fill="none" stroke="black" d="M1098.18,-291.34C1073.55,-280.07 1038.49,-264.03 1012.08,-251.94"/>
<polygon fill="black" stroke="black" points="1013.32,-248.66 1002.77,-247.69 1010.41,-255.03 1013.32,-248.66"/>
</g>
<!-- nonhumananimal -->
<g id="node42" class="node">
<title>nonhumananimal</title>
<ellipse fill="none" stroke="black" cx="1128.05" cy="-234" rx="92.88" ry="18"/>
<text text-anchor="middle" x="1128.05" y="-230.3" font-family="sans-serif" font-size="14.00">nonhuman&#45;animal</text>
</g>
<!-- mammal&#45;&gt;nonhumananimal -->
<g id="edge25" class="edge">
<title>mammal&#45;&gt;nonhumananimal</title>
<path fill="none" stroke="black" d="M1128.05,-287.7C1128.05,-279.98 1128.05,-270.71 1128.05,-262.11"/>
<polygon fill="black" stroke="black" points="1131.55,-262.1 1128.05,-252.1 1124.55,-262.1 1131.55,-262.1"/>
</g>
<!-- possessorreln -->
<g id="node13" class="node">
<title>possessorreln</title>
<ellipse fill="none" stroke="black" cx="1054.05" cy="-90" rx="75.29" ry="18"/>
<text text-anchor="middle" x="1054.05" y="-86.3" font-family="sans-serif" font-size="14.00">possessor&#45;reln</text>
</g>
<!-- bird -->
<g id="node14" class="node">
<title>bird</title>
<ellipse fill="none" stroke="black" cx="1225.05" cy="-306" rx="28.7" ry="18"/>
<text text-anchor="middle" x="1225.05" y="-302.3" font-family="sans-serif" font-size="14.00">bird</text>
</g>
<!-- emu -->
<g id="node15" class="node">
<title>emu</title>
<ellipse fill="none" stroke="black" cx="1269.05" cy="-234" rx="30.59" ry="18"/>
<text text-anchor="middle" x="1269.05" y="-230.3" font-family="sans-serif" font-size="14.00">emu</text>
</g>
<!-- bird&#45;&gt;emu -->
<g id="edge6" class="edge">
<title>bird&#45;&gt;emu</title>
<path fill="none" stroke="black" d="M1235.03,-289.12C1240.47,-280.47 1247.31,-269.58 1253.44,-259.83"/>
<polygon fill="black" stroke="black" points="1256.44,-261.64 1258.8,-251.31 1250.51,-257.91 1256.44,-261.64"/>
</g>
<!-- persondefinedbymembership -->
<g id="node16" class="node">
<title>persondefinedbymembership</title>
<ellipse fill="none" stroke="black" cx="1302.05" cy="-90" rx="154.87" ry="18"/>
<text text-anchor="middle" x="1302.05" y="-86.3" font-family="sans-serif" font-size="14.00">person&#45;defined&#45;by&#45;membership</text>
</g>
<!-- professional&#45;&gt;scholar -->
<g id="edge32" class="edge">
<title>professional&#45;&gt;scholar</title>
<path fill="none" stroke="black" d="M510.68,-149.82C501.83,-147.84 492.67,-145.82 484.05,-144 402.95,-126.84 381.26,-128.92 301.05,-108 297.73,-107.13 294.31,-106.18 290.89,-105.17"/>
<polygon fill="black" stroke="black" points="291.91,-101.82 281.32,-102.22 289.85,-108.51 291.91,-101.82"/>
</g>
<!-- healthprofessional -->
<g id="node30" class="node">
<title>healthprofessional</title>
<ellipse fill="none" stroke="black" cx="407.05" cy="-90" rx="96.68" ry="18"/>
<text text-anchor="middle" x="407.05" y="-86.3" font-family="sans-serif" font-size="14.00">health&#45;professional</text>
</g>
<!-- professional&#45;&gt;healthprofessional -->
<g id="edge16" class="edge">
<title>professional&#45;&gt;healthprofessional</title>
<path fill="none" stroke="black" d="M526.81,-146.15C504.73,-135.99 475.18,-122.38 450.95,-111.22"/>
<polygon fill="black" stroke="black" points="452.16,-107.92 441.61,-106.92 449.23,-114.28 452.16,-107.92"/>
</g>
<!-- author -->
<g id="node50" class="node">
<title>author</title>
<ellipse fill="none" stroke="black" cx="562.05" cy="-90" rx="40.09" ry="18"/>
<text text-anchor="middle" x="562.05" y="-86.3" font-family="sans-serif" font-size="14.00">author</text>
</g>
<!-- professional&#45;&gt;author -->
<g id="edge39" class="edge">
<title>professional&#45;&gt;author</title>
<path fill="none" stroke="black" d="M559.79,-143.7C560.12,-135.98 560.52,-126.71 560.88,-118.11"/>
<polygon fill="black" stroke="black" points="564.38,-118.25 561.31,-108.1 557.39,-117.95 564.38,-118.25"/>
</g>
<!-- grass -->
<g id="node19" class="node">
<title>grass</title>
<ellipse fill="none" stroke="black" cx="1709.05" cy="-306" rx="36" ry="18"/>
<text text-anchor="middle" x="1709.05" y="-302.3" font-family="sans-serif" font-size="14.00">grass</text>
</g>
<!-- mollusks -->
<g id="node21" class="node">
<title>mollusks</title>
<ellipse fill="none" stroke="black" cx="767.05" cy="-306" rx="50.89" ry="18"/>
<text text-anchor="middle" x="767.05" y="-302.3" font-family="sans-serif" font-size="14.00">mollusks</text>
</g>
<!-- invertebrate&#45;&gt;mollusks -->
<g id="edge9" class="edge">
<title>invertebrate&#45;&gt;mollusks</title>
<path fill="none" stroke="black" d="M923.52,-363.17C891.19,-351.57 845.01,-334.99 811.2,-322.85"/>
<polygon fill="black" stroke="black" points="812.17,-319.48 801.57,-319.39 809.8,-326.07 812.17,-319.48"/>
</g>
<!-- crustaceans -->
<g id="node28" class="node">
<title>crustaceans</title>
<ellipse fill="none" stroke="black" cx="901.05" cy="-306" rx="65.79" ry="18"/>
<text text-anchor="middle" x="901.05" y="-302.3" font-family="sans-serif" font-size="14.00">crustaceans</text>
</g>
<!-- invertebrate&#45;&gt;crustaceans -->
<g id="edge15" class="edge">
<title>invertebrate&#45;&gt;crustaceans</title>
<path fill="none" stroke="black" d="M947.59,-360.41C940.1,-351.82 930.81,-341.16 922.51,-331.63"/>
<polygon fill="black" stroke="black" points="925.03,-329.2 915.82,-323.96 919.75,-333.79 925.03,-329.2"/>
</g>
<!-- insect -->
<g id="node62" class="node">
<title>insect</title>
<ellipse fill="none" stroke="black" cx="1022.05" cy="-306" rx="37.89" ry="18"/>
<text text-anchor="middle" x="1022.05" y="-302.3" font-family="sans-serif" font-size="14.00">insect</text>
</g>
<!-- invertebrate&#45;&gt;insect -->
<g id="edge44" class="edge">
<title>invertebrate&#45;&gt;insect</title>
<path fill="none" stroke="black" d="M976.26,-360.41C983.85,-351.57 993.31,-340.53 1001.65,-330.79"/>
<polygon fill="black" stroke="black" points="1004.49,-332.86 1008.34,-322.99 999.18,-328.3 1004.49,-332.86"/>
</g>
<!-- amphibian -->
<g id="node22" class="node">
<title>amphibian</title>
<ellipse fill="none" stroke="black" cx="1330.05" cy="-306" rx="58.49" ry="18"/>
<text text-anchor="middle" x="1330.05" y="-302.3" font-family="sans-serif" font-size="14.00">amphibian</text>
</g>
<!-- vertebrate&#45;&gt;mammal -->
<g id="edge11" class="edge">
<title>vertebrate&#45;&gt;mammal</title>
<path fill="none" stroke="black" d="M1246.53,-362.67C1223.36,-351.78 1191.33,-336.73 1166.42,-325.03"/>
<polygon fill="black" stroke="black" points="1167.79,-321.8 1157.25,-320.72 1164.81,-328.14 1167.79,-321.8"/>
</g>
<!-- vertebrate&#45;&gt;bird -->
<g id="edge54" class="edge">
<title>vertebrate&#45;&gt;bird</title>
<path fill="none" stroke="black" d="M1264.72,-360.41C1258.13,-351.53 1249.89,-340.44 1242.63,-330.67"/>
<polygon fill="black" stroke="black" points="1245.34,-328.45 1236.57,-322.51 1239.72,-332.63 1245.34,-328.45"/>
</g>
<!-- vertebrate&#45;&gt;amphibian -->
<g id="edge17" class="edge">
<title>vertebrate&#45;&gt;amphibian</title>
<path fill="none" stroke="black" d="M1289.61,-360.41C1295.98,-351.99 1303.86,-341.58 1310.97,-332.2"/>
<polygon fill="black" stroke="black" points="1313.96,-334.04 1317.21,-323.96 1308.38,-329.82 1313.96,-334.04"/>
</g>
<!-- fish -->
<g id="node33" class="node">
<title>fish</title>
<ellipse fill="none" stroke="black" cx="1434.05" cy="-306" rx="27.1" ry="18"/>
<text text-anchor="middle" x="1434.05" y="-302.3" font-family="sans-serif" font-size="14.00">fish</text>
</g>
<!-- vertebrate&#45;&gt;fish -->
<g id="edge46" class="edge">
<title>vertebrate&#45;&gt;fish</title>
<path fill="none" stroke="black" d="M1309.19,-362.96C1333.39,-352.35 1367.35,-337.38 1397.05,-324 1398.88,-323.17 1400.77,-322.32 1402.67,-321.45"/>
<polygon fill="black" stroke="black" points="1404.52,-324.46 1412.16,-317.12 1401.61,-318.09 1404.52,-324.46"/>
</g>
<!-- reptile -->
<g id="node59" class="node">
<title>reptile</title>
<ellipse fill="none" stroke="black" cx="1518.05" cy="-306" rx="38.99" ry="18"/>
<text text-anchor="middle" x="1518.05" y="-302.3" font-family="sans-serif" font-size="14.00">reptile</text>
</g>
<!-- vertebrate&#45;&gt;reptile -->
<g id="edge37" class="edge">
<title>vertebrate&#45;&gt;reptile</title>
<path fill="none" stroke="black" d="M1320.62,-366C1359.91,-355.85 1419.16,-339.98 1470.05,-324 1472.95,-323.09 1475.93,-322.12 1478.93,-321.11"/>
<polygon fill="black" stroke="black" points="1480.13,-324.41 1488.46,-317.86 1477.86,-317.78 1480.13,-324.41"/>
</g>
<!-- femalechild -->
<g id="node26" class="node">
<title>femalechild</title>
<ellipse fill="none" stroke="black" cx="687.05" cy="-90" rx="66.09" ry="18"/>
<text text-anchor="middle" x="687.05" y="-86.3" font-family="sans-serif" font-size="14.00">female&#45;child</text>
</g>
<!-- femaleperson&#45;&gt;femalechild -->
<g id="edge13" class="edge">
<title>femaleperson&#45;&gt;femalechild</title>
<path fill="none" stroke="black" d="M857.45,-147C822.94,-135.66 774.22,-119.65 737.71,-107.65"/>
<polygon fill="black" stroke="black" points="738.35,-104.18 727.76,-104.38 736.16,-110.83 738.35,-104.18"/>
</g>
<!-- malechild -->
<g id="node29" class="node">
<title>malechild</title>
<ellipse fill="none" stroke="black" cx="2064.05" cy="-90" rx="57.69" ry="18"/>
<text text-anchor="middle" x="2064.05" y="-86.3" font-family="sans-serif" font-size="14.00">male&#45;child</text>
</g>
<!-- vine -->
<g id="node32" class="node">
<title>vine</title>
<ellipse fill="none" stroke="black" cx="1383.05" cy="-378" rx="29.8" ry="18"/>
<text text-anchor="middle" x="1383.05" y="-374.3" font-family="sans-serif" font-size="14.00">vine</text>
</g>
<!-- specialist -->
<g id="node34" class="node">
<title>specialist</title>
<ellipse fill="none" stroke="black" cx="1527.05" cy="-90" rx="52.79" ry="18"/>
<text text-anchor="middle" x="1527.05" y="-86.3" font-family="sans-serif" font-size="14.00">specialist</text>
</g>
<!-- personreln&#45;&gt;identityandorigin -->
<g id="edge27" class="edge">
<title>personreln&#45;&gt;identityandorigin</title>
<path fill="none" stroke="black" d="M1256.74,-149.45C1248.23,-147.48 1239.39,-145.57 1231.05,-144 1115.97,-122.34 1085.84,-125.45 970.05,-108 961.85,-106.77 953.31,-105.44 944.78,-104.08"/>
<polygon fill="black" stroke="black" points="945.24,-100.61 934.82,-102.49 944.14,-107.52 945.24,-100.61"/>
</g>
<!-- personreln&#45;&gt;possessorreln -->
<g id="edge38" class="edge">
<title>personreln&#45;&gt;possessorreln</title>
<path fill="none" stroke="black" d="M1259.13,-148.89C1217.93,-137.26 1155.46,-119.63 1110.29,-106.88"/>
<polygon fill="black" stroke="black" points="1111.22,-103.5 1100.65,-104.15 1109.32,-110.24 1111.22,-103.5"/>
</g>
<!-- personreln&#45;&gt;persondefinedbymembership -->
<g id="edge22" class="edge">
<title>personreln&#45;&gt;persondefinedbymembership</title>
<path fill="none" stroke="black" d="M1302.05,-143.7C1302.05,-135.98 1302.05,-126.71 1302.05,-118.11"/>
<polygon fill="black" stroke="black" points="1305.55,-118.1 1302.05,-108.1 1298.55,-118.1 1305.55,-118.1"/>
</g>
<!-- personreln&#45;&gt;specialist -->
<g id="edge41" class="edge">
<title>personreln&#45;&gt;specialist</title>
<path fill="none" stroke="black" d="M1342.79,-148.32C1381.4,-136.31 1439.36,-118.28 1479.93,-105.66"/>
<polygon fill="black" stroke="black" points="1481.08,-108.96 1489.59,-102.65 1479.01,-102.28 1481.08,-108.96"/>
</g>
<!-- communicationparty -->
<g id="node36" class="node">
<title>communicationparty</title>
<ellipse fill="none" stroke="black" cx="1705.05" cy="-90" rx="107.48" ry="18"/>
<text text-anchor="middle" x="1705.05" y="-86.3" font-family="sans-serif" font-size="14.00">communication&#45;party</text>
</g>
<!-- personreln&#45;&gt;communicationparty -->
<g id="edge18" class="edge">
<title>personreln&#45;&gt;communicationparty</title>
<path fill="none" stroke="black" d="M1347.38,-149.6C1355.88,-147.61 1364.72,-145.66 1373.05,-144 1418.59,-134.93 1535.77,-116.66 1617.95,-104.13"/>
<polygon fill="black" stroke="black" points="1618.68,-107.56 1628.04,-102.59 1617.63,-100.64 1618.68,-107.56"/>
</g>
<!-- friend -->
<g id="node41" class="node">
<title>friend</title>
<ellipse fill="none" stroke="black" cx="1868.05" cy="-90" rx="37.89" ry="18"/>
<text text-anchor="middle" x="1868.05" y="-86.3" font-family="sans-serif" font-size="14.00">friend</text>
</g>
<!-- personreln&#45;&gt;friend -->
<g id="edge47" class="edge">
<title>personreln&#45;&gt;friend</title>
<path fill="none" stroke="black" d="M1346.53,-149.24C1355.27,-147.24 1364.41,-145.37 1373.05,-144 1570.32,-112.65 1625.83,-150.35 1821.05,-108 1824.09,-107.34 1827.19,-106.53 1830.3,-105.63"/>
<polygon fill="black" stroke="black" points="1831.62,-108.88 1840.07,-102.5 1829.48,-102.22 1831.62,-108.88"/>
</g>
<!-- grains -->
<g id="node37" class="node">
<title>grains</title>
<ellipse fill="none" stroke="black" cx="1470.05" cy="-378" rx="38.99" ry="18"/>
<text text-anchor="middle" x="1470.05" y="-374.3" font-family="sans-serif" font-size="14.00">grains</text>
</g>
<!-- eater -->
<g id="node38" class="node">
<title>eater</title>
<ellipse fill="none" stroke="black" cx="1623.05" cy="-450" rx="34.39" ry="18"/>
<text text-anchor="middle" x="1623.05" y="-446.3" font-family="sans-serif" font-size="14.00">eater</text>
</g>
<!-- child -->
<g id="node54" class="node">
<title>child</title>
<ellipse fill="none" stroke="black" cx="1956.05" cy="-90" rx="32.49" ry="18"/>
<text text-anchor="middle" x="1956.05" y="-86.3" font-family="sans-serif" font-size="14.00">child</text>
</g>
<!-- familyrelation&#45;&gt;child -->
<g id="edge49" class="edge">
<title>familyrelation&#45;&gt;child</title>
<path fill="none" stroke="black" d="M1712.64,-149.72C1787,-134.6 1910.18,-109.49 1915.05,-108 1917.35,-107.29 1919.69,-106.51 1922.05,-105.67"/>
<polygon fill="black" stroke="black" points="1923.51,-108.86 1931.61,-102.02 1921.02,-102.32 1923.51,-108.86"/>
</g>
<!-- plant -->
<g id="node44" class="node">
<title>plant</title>
<ellipse fill="none" stroke="black" cx="1709.05" cy="-450" rx="33.6" ry="18"/>
<text text-anchor="middle" x="1709.05" y="-446.3" font-family="sans-serif" font-size="14.00">plant</text>
</g>
<!-- plant&#45;&gt;vine -->
<g id="edge53" class="edge">
<title>plant&#45;&gt;vine</title>
<path fill="none" stroke="black" d="M1683.91,-437.94C1678.12,-435.72 1671.94,-433.58 1666.05,-432 1560.15,-403.66 1527.43,-426.16 1422.05,-396 1419.77,-395.35 1417.45,-394.59 1415.14,-393.77"/>
<polygon fill="black" stroke="black" points="1416.36,-390.49 1405.77,-390.1 1413.81,-397.01 1416.36,-390.49"/>
</g>
<!-- plant&#45;&gt;grains -->
<g id="edge23" class="edge">
<title>plant&#45;&gt;grains</title>
<path fill="none" stroke="black" d="M1683.33,-438.17C1677.69,-435.98 1671.71,-433.8 1666.05,-432 1601.53,-411.51 1582.92,-415.33 1518.05,-396 1515.09,-395.12 1512.05,-394.16 1509,-393.17"/>
<polygon fill="black" stroke="black" points="1509.93,-389.79 1499.34,-389.91 1507.69,-396.42 1509.93,-389.79"/>
</g>
<!-- shrub -->
<g id="node46" class="node">
<title>shrub</title>
<ellipse fill="none" stroke="black" cx="1564.05" cy="-378" rx="37.09" ry="18"/>
<text text-anchor="middle" x="1564.05" y="-374.3" font-family="sans-serif" font-size="14.00">shrub</text>
</g>
<!-- plant&#45;&gt;shrub -->
<g id="edge26" class="edge">
<title>plant&#45;&gt;shrub</title>
<path fill="none" stroke="black" d="M1684.78,-437.28C1661.22,-425.91 1625.25,-408.54 1598.69,-395.72"/>
<polygon fill="black" stroke="black" points="1599.9,-392.42 1589.37,-391.23 1596.85,-398.73 1599.9,-392.42"/>
</g>
<!-- herbaceousplant -->
<g id="node60" class="node">
<title>herbaceousplant</title>
<ellipse fill="none" stroke="black" cx="1709.05" cy="-378" rx="89.88" ry="18"/>
<text text-anchor="middle" x="1709.05" y="-374.3" font-family="sans-serif" font-size="14.00">herbaceous&#45;plant</text>
</g>
<!-- plant&#45;&gt;herbaceousplant -->
<g id="edge40" class="edge">
<title>plant&#45;&gt;herbaceousplant</title>
<path fill="none" stroke="black" d="M1709.05,-431.7C1709.05,-423.98 1709.05,-414.71 1709.05,-406.11"/>
<polygon fill="black" stroke="black" points="1712.55,-406.1 1709.05,-396.1 1705.55,-406.1 1712.55,-406.1"/>
</g>
<!-- plantpart -->
<g id="node63" class="node">
<title>plantpart</title>
<ellipse fill="none" stroke="black" cx="1873.05" cy="-378" rx="55.79" ry="18"/>
<text text-anchor="middle" x="1873.05" y="-374.3" font-family="sans-serif" font-size="14.00">plant&#45;part</text>
</g>
<!-- plant&#45;&gt;plantpart -->
<g id="edge57" class="edge">
<title>plant&#45;&gt;plantpart</title>
<path fill="none" stroke="black" d="M1734.67,-438.06C1760.52,-427.03 1800.86,-409.81 1831.33,-396.81"/>
<polygon fill="black" stroke="black" points="1833.02,-399.89 1840.84,-392.75 1830.27,-393.45 1833.02,-399.89"/>
</g>
<!-- alga -->
<g id="node64" class="node">
<title>alga</title>
<ellipse fill="none" stroke="black" cx="1977.05" cy="-378" rx="29.8" ry="18"/>
<text text-anchor="middle" x="1977.05" y="-374.3" font-family="sans-serif" font-size="14.00">alga</text>
</g>
<!-- plant&#45;&gt;alga -->
<g id="edge50" class="edge">
<title>plant&#45;&gt;alga</title>
<path fill="none" stroke="black" d="M1734.7,-437.96C1740.34,-435.79 1746.34,-433.66 1752.05,-432 1832.88,-408.42 1857.63,-420.97 1938.05,-396 1940.31,-395.3 1942.61,-394.5 1944.92,-393.65"/>
<polygon fill="black" stroke="black" points="1946.28,-396.88 1954.27,-389.93 1943.68,-390.38 1946.28,-396.88"/>
</g>
<!-- tree -->
<g id="node65" class="node">
<title>tree</title>
<ellipse fill="none" stroke="black" cx="2053.05" cy="-378" rx="28.7" ry="18"/>
<text text-anchor="middle" x="2053.05" y="-374.3" font-family="sans-serif" font-size="14.00">tree</text>
</g>
<!-- plant&#45;&gt;tree -->
<g id="edge63" class="edge">
<title>plant&#45;&gt;tree</title>
<path fill="none" stroke="black" d="M1734.17,-437.9C1739.96,-435.67 1746.14,-433.54 1752.05,-432 1866.61,-402.01 1902.34,-429.08 2016.05,-396 2017.98,-395.44 2019.94,-394.79 2021.9,-394.08"/>
<polygon fill="black" stroke="black" points="2023.59,-397.17 2031.54,-390.17 2020.96,-390.69 2023.59,-397.17"/>
</g>
<!-- bacterium -->
<g id="node47" class="node">
<title>bacterium</title>
<ellipse fill="none" stroke="black" cx="2156.05" cy="-378" rx="56.59" ry="18"/>
<text text-anchor="middle" x="2156.05" y="-374.3" font-family="sans-serif" font-size="14.00">bacterium</text>
</g>
<!-- microorganism -->
<g id="node48" class="node">
<title>microorganism</title>
<ellipse fill="none" stroke="black" cx="1838.05" cy="-450" rx="77.19" ry="18"/>
<text text-anchor="middle" x="1838.05" y="-446.3" font-family="sans-serif" font-size="14.00">microorganism</text>
</g>
<!-- microorganism&#45;&gt;bacterium -->
<g id="edge42" class="edge">
<title>microorganism&#45;&gt;bacterium</title>
<path fill="none" stroke="black" d="M1895.25,-437.85C1946.64,-427.64 2024.1,-411.76 2091.05,-396 2095.38,-394.98 2099.86,-393.89 2104.36,-392.76"/>
<polygon fill="black" stroke="black" points="2105.33,-396.13 2114.16,-390.28 2103.61,-389.34 2105.33,-396.13"/>
</g>
<!-- virus -->
<g id="node49" class="node">
<title>virus</title>
<ellipse fill="none" stroke="black" cx="2264.05" cy="-378" rx="33.29" ry="18"/>
<text text-anchor="middle" x="2264.05" y="-374.3" font-family="sans-serif" font-size="14.00">virus</text>
</g>
<!-- microorganism&#45;&gt;virus -->
<g id="edge28" class="edge">
<title>microorganism&#45;&gt;virus</title>
<path fill="none" stroke="black" d="M1894.1,-437.43C1904.37,-435.48 1915.01,-433.59 1925.05,-432 2056.38,-411.24 2093.3,-429.23 2222.05,-396 2224.67,-395.32 2227.35,-394.52 2230.02,-393.64"/>
<polygon fill="black" stroke="black" points="2231.33,-396.88 2239.54,-390.18 2228.94,-390.3 2231.33,-396.88"/>
</g>
<!-- organism -->
<g id="node55" class="node">
<title>organism</title>
<ellipse fill="none" stroke="black" cx="1709.05" cy="-522" rx="52.79" ry="18"/>
<text text-anchor="middle" x="1709.05" y="-518.3" font-family="sans-serif" font-size="14.00">organism</text>
</g>
<!-- organism&#45;&gt;supernaturalbeing -->
<g id="edge36" class="edge">
<title>organism&#45;&gt;supernaturalbeing</title>
<path fill="none" stroke="black" d="M1661.65,-514.09C1593.56,-504.13 1464.12,-485.04 1354.05,-468 1345.77,-466.72 1337.14,-465.36 1328.52,-464"/>
<polygon fill="black" stroke="black" points="1328.87,-460.51 1318.45,-462.4 1327.77,-467.43 1328.87,-460.51"/>
</g>
<!-- organism&#45;&gt;animal -->
<g id="edge58" class="edge">
<title>organism&#45;&gt;animal</title>
<path fill="none" stroke="black" d="M1666.64,-511.27C1609.5,-498.15 1508.23,-474.91 1449.55,-461.44"/>
<polygon fill="black" stroke="black" points="1449.99,-457.95 1439.46,-459.13 1448.43,-464.78 1449.99,-457.95"/>
</g>
<!-- organism&#45;&gt;eater -->
<g id="edge56" class="edge">
<title>organism&#45;&gt;eater</title>
<path fill="none" stroke="black" d="M1689.53,-505.12C1677.58,-495.39 1662.14,-482.82 1649.14,-472.24"/>
<polygon fill="black" stroke="black" points="1650.98,-469.23 1641.02,-465.63 1646.56,-474.65 1650.98,-469.23"/>
</g>
<!-- organism&#45;&gt;plant -->
<g id="edge43" class="edge">
<title>organism&#45;&gt;plant</title>
<path fill="none" stroke="black" d="M1709.05,-503.7C1709.05,-495.98 1709.05,-486.71 1709.05,-478.11"/>
<polygon fill="black" stroke="black" points="1712.55,-478.1 1709.05,-468.1 1705.55,-478.1 1712.55,-478.1"/>
</g>
<!-- organism&#45;&gt;microorganism -->
<g id="edge35" class="edge">
<title>organism&#45;&gt;microorganism</title>
<path fill="none" stroke="black" d="M1736.09,-506.33C1754.62,-496.27 1779.47,-482.78 1800,-471.65"/>
<polygon fill="black" stroke="black" points="1801.67,-474.72 1808.79,-466.87 1798.33,-468.57 1801.67,-474.72"/>
</g>
<!-- fungus -->
<g id="node58" class="node">
<title>fungus</title>
<ellipse fill="none" stroke="black" cx="1976.05" cy="-450" rx="42.49" ry="18"/>
<text text-anchor="middle" x="1976.05" y="-446.3" font-family="sans-serif" font-size="14.00">fungus</text>
</g>
<!-- organism&#45;&gt;fungus -->
<g id="edge55" class="edge">
<title>organism&#45;&gt;fungus</title>
<path fill="none" stroke="black" d="M1752.13,-511.37C1795.71,-501.4 1864.91,-484.93 1924.05,-468 1927.39,-467.04 1930.84,-466.01 1934.3,-464.95"/>
<polygon fill="black" stroke="black" points="1935.5,-468.24 1943.98,-461.89 1933.39,-461.56 1935.5,-468.24"/>
</g>
<!-- imaginarybeing -->
<g id="node61" class="node">
<title>imaginarybeing</title>
<ellipse fill="none" stroke="black" cx="2121.05" cy="-450" rx="85.29" ry="18"/>
<text text-anchor="middle" x="2121.05" y="-446.3" font-family="sans-serif" font-size="14.00">imaginary&#45;being</text>
</g>
<!-- organism&#45;&gt;imaginarybeing -->
<g id="edge45" class="edge">
<title>organism&#45;&gt;imaginarybeing</title>
<path fill="none" stroke="black" d="M1755.42,-513.48C1817.38,-503.38 1930.54,-484.77 2027.05,-468 2034.12,-466.77 2041.5,-465.47 2048.86,-464.16"/>
<polygon fill="black" stroke="black" points="2049.65,-467.57 2058.87,-462.37 2048.41,-460.68 2049.65,-467.57"/>
</g>
<!-- maleperson&#45;&gt;malechild -->
<g id="edge64" class="edge">
<title>maleperson&#45;&gt;malechild</title>
<path fill="none" stroke="black" d="M2044.34,-144.05C2047.27,-136.18 2050.82,-126.62 2054.09,-117.79"/>
<polygon fill="black" stroke="black" points="2057.43,-118.87 2057.63,-108.28 2050.87,-116.43 2057.43,-118.87"/>
</g>
<!-- herbaceousplant&#45;&gt;grass -->
<g id="edge59" class="edge">
<title>herbaceousplant&#45;&gt;grass</title>
<path fill="none" stroke="black" d="M1709.05,-359.7C1709.05,-351.98 1709.05,-342.71 1709.05,-334.11"/>
<polygon fill="black" stroke="black" points="1712.55,-334.1 1709.05,-324.1 1705.55,-334.1 1712.55,-334.1"/>
</g>
</g>
</svg>
