<?xml version="1.0" encoding="UTF-8" standalone="no"?>
<!DOCTYPE svg PUBLIC "-//W3C//DTD SVG 1.1//EN"
 "http://www.w3.org/Graphics/SVG/1.1/DTD/svg11.dtd">
<!-- Generated by graphviz version 2.43.0 (0)
 -->
<!-- Title: G Pages: 1 -->
<svg width="217pt" height="188pt"
 viewBox="0.00 0.00 217.00 188.00" xmlns="http://www.w3.org/2000/svg" xmlns:xlink="http://www.w3.org/1999/xlink">
<g id="graph0" class="graph" transform="scale(1 1) rotate(0) translate(4 184)">
<title>G</title>
<polygon fill="white" stroke="transparent" points="-4,4 -4,-184 213,-184 213,4 -4,4"/>
<!-- animal -->
<g id="node1" class="node">
<title>animal</title>
<ellipse fill="none" stroke="black" cx="116" cy="-162" rx="40.89" ry="18"/>
<text text-anchor="middle" x="116" y="-158.3" font-family="sans-serif" font-size="14.00">animal</text>
</g>
<!-- mammal -->
<g id="node2" class="node">
<title>mammal</title>
<ellipse fill="none" stroke="black" cx="63" cy="-90" rx="50.09" ry="18"/>
<text text-anchor="middle" x="63" y="-86.3" font-family="sans-serif" font-size="14.00">mammal</text>
</g>
<!-- animal&#45;&gt;mammal -->
<g id="edge1" class="edge">
<title>animal&#45;&gt;mammal</title>
<path fill="none" stroke="black" d="M97.61,-136.72C90.34,-127.11 82.17,-116.32 75.59,-107.63"/>
<polygon fill="black" stroke="black" points="94.88,-138.9 103.71,-144.76 100.46,-134.68 94.88,-138.9"/>
</g>
<!-- reptile -->
<g id="node3" class="node">
<title>reptile</title>
<ellipse fill="none" stroke="black" cx="170" cy="-90" rx="38.99" ry="18"/>
<text text-anchor="middle" x="170" y="-86.3" font-family="sans-serif" font-size="14.00">reptile</text>
</g>
<!-- animal&#45;&gt;reptile -->
<g id="edge2" class="edge">
<title>animal&#45;&gt;reptile</title>
<path fill="none" stroke="black" d="M134.83,-136.59C142.35,-126.84 150.81,-115.88 157.54,-107.15"/>
<polygon fill="black" stroke="black" points="131.86,-134.71 128.52,-144.76 137.4,-138.98 131.86,-134.71"/>
</g>
<!-- cat -->
<g id="node4" class="node">
<title>cat</title>
<ellipse fill="none" stroke="black" cx="27" cy="-18" rx="27" ry="18"/>
<text text-anchor="middle" x="27" y="-14.3" font-family="sans-serif" font-size="14.00">cat</text>
</g>
<!-- mammal&#45;&gt;cat -->
<g id="edge3" class="edge">
<title>mammal&#45;&gt;cat</title>
<path fill="none" stroke="black" d="M49.71,-63.15C44.91,-53.83 39.64,-43.58 35.39,-35.31"/>
<polygon fill="black" stroke="black" points="46.6,-64.76 54.29,-72.05 52.82,-61.56 46.6,-64.76"/>
</g>
<!-- dog -->
<g id="node5" class="node">
<title>dog</title>
<ellipse fill="none" stroke="black" cx="100" cy="-18" rx="27.9" ry="18"/>
<text text-anchor="middle" x="100" y="-14.3" font-family="sans-serif" font-size="14.00">dog</text>
</g>
<!-- mammal&#45;&gt;dog -->
<g id="edge4" class="edge">
<title>mammal&#45;&gt;dog</title>
<path fill="none" stroke="black" d="M76.66,-63.15C81.59,-53.83 87.01,-43.58 91.38,-35.31"/>
<polygon fill="black" stroke="black" points="73.54,-61.58 71.96,-72.05 79.72,-64.85 73.54,-61.58"/>
</g>
</g>
</svg>
