<?xml version="1.0" encoding="UTF-8" standalone="no"?>
<!DOCTYPE svg PUBLIC "-//W3C//DTD SVG 1.1//EN"
 "http://www.w3.org/Graphics/SVG/1.1/DTD/svg11.dtd">
<!-- Generated by graphviz version 2.43.0 (0)
 -->
<!-- Title: G Pages: 1 -->
<svg width="523pt" height="332pt"
 viewBox="0.00 0.00 523.25 332.00" xmlns="http://www.w3.org/2000/svg" xmlns:xlink="http://www.w3.org/1999/xlink">
<g id="graph0" class="graph" transform="scale(1 1) rotate(0) translate(4 328)">
<title>G</title>
<polygon fill="white" stroke="transparent" points="-4,4 -4,-328 519.25,-328 519.25,4 -4,4"/>
<!-- mammal -->
<g id="node1" class="node">
<title>mammal</title>
<ellipse fill="none" stroke="black" cx="60" cy="-90" rx="50.09" ry="18"/>
<text text-anchor="middle" x="60" y="-86.3" font-family="sans-serif" font-size="14.00">mammal</text>
</g>
<!-- cat -->
<g id="node2" class="node">
<title>cat</title>
<ellipse fill="none" stroke="black" cx="27" cy="-18" rx="27" ry="18"/>
<text text-anchor="middle" x="27" y="-14.3" font-family="sans-serif" font-size="14.00">cat</text>
</g>
<!-- mammal&#45;&gt;cat -->
<g id="edge1" class="edge">
<title>mammal&#45;&gt;cat</title>
<path fill="none" stroke="black" d="M47.68,-62.86C43.32,-53.62 38.55,-43.5 34.69,-35.31"/>
<polygon fill="black" stroke="black" points="44.58,-64.5 52.01,-72.05 50.91,-61.52 44.58,-64.5"/>
</g>
<!-- dog -->
<g id="node14" class="node">
<title>dog</title>
<ellipse fill="none" stroke="black" cx="100" cy="-18" rx="27.9" ry="18"/>
<text text-anchor="middle" x="100" y="-14.3" font-family="sans-serif" font-size="14.00">dog</text>
</g>
<!-- mammal&#45;&gt;dog -->
<g id="edge12" class="edge">
<title>mammal&#45;&gt;dog</title>
<path fill="none" stroke="black" d="M74.77,-63.15C80.09,-53.83 85.95,-43.58 90.68,-35.31"/>
<polygon fill="black" stroke="black" points="71.61,-61.64 69.68,-72.05 77.68,-65.11 71.61,-61.64"/>
</g>
<!-- fish -->
<g id="node3" class="node">
<title>fish</title>
<ellipse fill="none" stroke="black" cx="155" cy="-90" rx="27.1" ry="18"/>
<text text-anchor="middle" x="155" y="-86.3" font-family="sans-serif" font-size="14.00">fish</text>
</g>
<!-- snake -->
<g id="node4" class="node">
<title>snake</title>
<ellipse fill="none" stroke="black" cx="211" cy="-18" rx="37.09" ry="18"/>
<text text-anchor="middle" x="211" y="-14.3" font-family="sans-serif" font-size="14.00">snake</text>
</g>
<!-- reptile -->
<g id="node5" class="node">
<title>reptile</title>
<ellipse fill="none" stroke="black" cx="239" cy="-90" rx="38.99" ry="18"/>
<text text-anchor="middle" x="239" y="-86.3" font-family="sans-serif" font-size="14.00">reptile</text>
</g>
<!-- reptile&#45;&gt;snake -->
<g id="edge8" class="edge">
<title>reptile&#45;&gt;snake</title>
<path fill="none" stroke="black" d="M228.49,-62.71C224.88,-53.69 220.94,-43.85 217.72,-35.79"/>
<polygon fill="black" stroke="black" points="225.26,-64.07 232.22,-72.05 231.76,-61.47 225.26,-64.07"/>
</g>
<!-- lizard -->
<g id="node12" class="node">
<title>lizard</title>
<ellipse fill="none" stroke="black" cx="301" cy="-18" rx="35.19" ry="18"/>
<text text-anchor="middle" x="301" y="-14.3" font-family="sans-serif" font-size="14.00">lizard</text>
</g>
<!-- reptile&#45;&gt;lizard -->
<g id="edge11" class="edge">
<title>reptile&#45;&gt;lizard</title>
<path fill="none" stroke="black" d="M259.89,-65.41C268.81,-55.34 278.99,-43.85 286.99,-34.82"/>
<polygon fill="black" stroke="black" points="257.08,-63.31 253.07,-73.12 262.32,-67.95 257.08,-63.31"/>
</g>
<!-- shoe -->
<g id="node6" class="node">
<title>shoe</title>
<ellipse fill="none" stroke="black" cx="328" cy="-90" rx="32.49" ry="18"/>
<text text-anchor="middle" x="328" y="-86.3" font-family="sans-serif" font-size="14.00">shoe</text>
</g>
<!-- animal -->
<g id="node7" class="node">
<title>animal</title>
<ellipse fill="none" stroke="black" cx="180" cy="-162" rx="40.89" ry="18"/>
<text text-anchor="middle" x="180" y="-158.3" font-family="sans-serif" font-size="14.00">animal</text>
</g>
<!-- animal&#45;&gt;mammal -->
<g id="edge6" class="edge">
<title>animal&#45;&gt;mammal</title>
<path fill="none" stroke="black" d="M147.43,-142C127.88,-130.6 103.4,-116.32 85.32,-105.77"/>
<polygon fill="black" stroke="black" points="145.89,-145.15 156.29,-147.17 149.42,-139.11 145.89,-145.15"/>
</g>
<!-- animal&#45;&gt;fish -->
<g id="edge7" class="edge">
<title>animal&#45;&gt;fish</title>
<path fill="none" stroke="black" d="M170.51,-134.43C167.32,-125.48 163.84,-115.76 161,-107.79"/>
<polygon fill="black" stroke="black" points="167.29,-135.81 173.95,-144.05 173.88,-133.46 167.29,-135.81"/>
</g>
<!-- animal&#45;&gt;reptile -->
<g id="edge2" class="edge">
<title>animal&#45;&gt;reptile</title>
<path fill="none" stroke="black" d="M200.32,-136.89C208.6,-127.06 217.96,-115.97 225.39,-107.15"/>
<polygon fill="black" stroke="black" points="197.45,-134.86 193.68,-144.76 202.81,-139.37 197.45,-134.86"/>
</g>
<!-- livingthing -->
<g id="node8" class="node">
<title>livingthing</title>
<ellipse fill="none" stroke="black" cx="206" cy="-234" rx="61.99" ry="18"/>
<text text-anchor="middle" x="206" y="-230.3" font-family="sans-serif" font-size="14.00">living&#45;thing</text>
</g>
<!-- livingthing&#45;&gt;animal -->
<g id="edge3" class="edge">
<title>livingthing&#45;&gt;animal</title>
<path fill="none" stroke="black" d="M196.18,-206.57C192.92,-197.77 189.36,-188.2 186.42,-180.28"/>
<polygon fill="black" stroke="black" points="192.94,-207.9 199.71,-216.05 199.51,-205.46 192.94,-207.9"/>
</g>
<!-- physicalobject -->
<g id="node9" class="node">
<title>physicalobject</title>
<ellipse fill="none" stroke="black" cx="267" cy="-306" rx="78.79" ry="18"/>
<text text-anchor="middle" x="267" y="-302.3" font-family="sans-serif" font-size="14.00">physical&#45;object</text>
</g>
<!-- physicalobject&#45;&gt;livingthing -->
<g id="edge4" class="edge">
<title>physicalobject&#45;&gt;livingthing</title>
<path fill="none" stroke="black" d="M245.59,-280.43C237.33,-270.96 228.1,-260.36 220.63,-251.79"/>
<polygon fill="black" stroke="black" points="243.03,-282.82 252.23,-288.05 248.3,-278.22 243.03,-282.82"/>
</g>
<!-- artifact -->
<g id="node10" class="node">
<title>artifact</title>
<ellipse fill="none" stroke="black" cx="341" cy="-234" rx="42.79" ry="18"/>
<text text-anchor="middle" x="341" y="-230.3" font-family="sans-serif" font-size="14.00">artifact</text>
</g>
<!-- physicalobject&#45;&gt;artifact -->
<g id="edge5" class="edge">
<title>physicalobject&#45;&gt;artifact</title>
<path fill="none" stroke="black" d="M291.98,-281.37C302.65,-271.28 314.81,-259.77 324.35,-250.75"/>
<polygon fill="black" stroke="black" points="289.4,-279 284.54,-288.41 294.21,-284.08 289.4,-279"/>
</g>
<!-- clothing -->
<g id="node11" class="node">
<title>clothing</title>
<ellipse fill="none" stroke="black" cx="341" cy="-162" rx="46.59" ry="18"/>
<text text-anchor="middle" x="341" y="-158.3" font-family="sans-serif" font-size="14.00">clothing</text>
</g>
<!-- artifact&#45;&gt;clothing -->
<g id="edge9" class="edge">
<title>artifact&#45;&gt;clothing</title>
<path fill="none" stroke="black" d="M341,-205.67C341,-197.05 341,-187.79 341,-180.1"/>
<polygon fill="black" stroke="black" points="337.5,-205.7 341,-215.7 344.5,-205.7 337.5,-205.7"/>
</g>
<!-- vehicle -->
<g id="node15" class="node">
<title>vehicle</title>
<ellipse fill="none" stroke="black" cx="473" cy="-162" rx="42.49" ry="18"/>
<text text-anchor="middle" x="473" y="-158.3" font-family="sans-serif" font-size="14.00">vehicle</text>
</g>
<!-- artifact&#45;&gt;vehicle -->
<g id="edge13" class="edge">
<title>artifact&#45;&gt;vehicle</title>
<path fill="none" stroke="black" d="M375.39,-214.76C398.01,-202.77 427.11,-187.34 447.63,-176.46"/>
<polygon fill="black" stroke="black" points="373.65,-211.73 366.45,-219.5 376.93,-217.91 373.65,-211.73"/>
</g>
<!-- clothing&#45;&gt;shoe -->
<g id="edge10" class="edge">
<title>clothing&#45;&gt;shoe</title>
<path fill="none" stroke="black" d="M335.92,-133.67C334.32,-125.05 332.6,-115.79 331.18,-108.1"/>
<polygon fill="black" stroke="black" points="332.52,-134.5 337.79,-143.7 339.4,-133.23 332.52,-134.5"/>
</g>
<!-- shirt -->
<g id="node13" class="node">
<title>shirt</title>
<ellipse fill="none" stroke="black" cx="410" cy="-90" rx="31.4" ry="18"/>
<text text-anchor="middle" x="410" y="-86.3" font-family="sans-serif" font-size="14.00">shirt</text>
</g>
<!-- clothing&#45;&gt;shirt -->
<g id="edge15" class="edge">
<title>clothing&#45;&gt;shirt</title>
<path fill="none" stroke="black" d="M364.1,-137.56C374.3,-127.21 386,-115.35 395.03,-106.19"/>
<polygon fill="black" stroke="black" points="361.53,-135.19 357,-144.76 366.52,-140.1 361.53,-135.19"/>
</g>
<!-- car -->
<g id="node16" class="node">
<title>car</title>
<ellipse fill="none" stroke="black" cx="486" cy="-90" rx="27" ry="18"/>
<text text-anchor="middle" x="486" y="-86.3" font-family="sans-serif" font-size="14.00">car</text>
</g>
<!-- vehicle&#45;&gt;car -->
<g id="edge14" class="edge">
<title>vehicle&#45;&gt;car</title>
<path fill="none" stroke="black" d="M478.08,-133.67C479.68,-125.05 481.4,-115.79 482.82,-108.1"/>
<polygon fill="black" stroke="black" points="474.6,-133.23 476.21,-143.7 481.48,-134.5 474.6,-133.23"/>
</g>
</g>
</svg>
