<?xml version="1.0" encoding="UTF-8" standalone="no"?>
<!DOCTYPE svg PUBLIC "-//W3C//DTD SVG 1.1//EN"
 "http://www.w3.org/Graphics/SVG/1.1/DTD/svg11.dtd">
<!-- Generated by graphviz version 2.43.0 (0)
 -->
<!-- Title: G Pages: 1 -->
<svg width="737pt" height="260pt"
 viewBox="0.00 0.00 737.49 260.00" xmlns="http://www.w3.org/2000/svg" xmlns:xlink="http://www.w3.org/1999/xlink">
<g id="graph0" class="graph" transform="scale(1 1) rotate(0) translate(4 256)">
<title>G</title>
<polygon fill="white" stroke="transparent" points="-4,4 -4,-256 733.49,-256 733.49,4 -4,4"/>
<!-- collection -->
<g id="node1" class="node">
<title>collection</title>
<ellipse fill="none" stroke="black" cx="459.45" cy="-234" rx="53.09" ry="18"/>
<text text-anchor="middle" x="459.45" y="-230.3" font-family="sans-serif" font-size="14.00">collection</text>
</g>
<!-- orderedcollection -->
<g id="node2" class="node">
<title>orderedcollection</title>
<ellipse fill="none" stroke="black" cx="354.45" cy="-162" rx="90.98" ry="18"/>
<text text-anchor="middle" x="354.45" y="-158.3" font-family="sans-serif" font-size="14.00">ordered&#45;collection</text>
</g>
<!-- collection&#45;&gt;orderedcollection -->
<g id="edge1" class="edge">
<title>collection&#45;&gt;orderedcollection</title>
<path fill="none" stroke="black" d="M436.4,-217.64C422.14,-208.13 403.59,-195.76 387.75,-185.2"/>
<polygon fill="black" stroke="black" points="389.53,-182.18 379.27,-179.55 385.65,-188.01 389.53,-182.18"/>
</g>
<!-- set -->
<g id="node6" class="node">
<title>set</title>
<ellipse fill="none" stroke="black" cx="565.45" cy="-162" rx="27" ry="18"/>
<text text-anchor="middle" x="565.45" y="-158.3" font-family="sans-serif" font-size="14.00">set</text>
</g>
<!-- collection&#45;&gt;set -->
<g id="edge2" class="edge">
<title>collection&#45;&gt;set</title>
<path fill="none" stroke="black" d="M482.71,-217.64C499.11,-206.81 521.12,-192.27 538.32,-180.91"/>
<polygon fill="black" stroke="black" points="540.41,-183.73 546.82,-175.3 536.55,-177.89 540.41,-183.73"/>
</g>
<!-- list -->
<g id="node3" class="node">
<title>list</title>
<ellipse fill="none" stroke="black" cx="140.45" cy="-90" rx="27" ry="18"/>
<text text-anchor="middle" x="140.45" y="-86.3" font-family="sans-serif" font-size="14.00">list</text>
</g>
<!-- orderedcollection&#45;&gt;list -->
<g id="edge11" class="edge">
<title>orderedcollection&#45;&gt;list</title>
<path fill="none" stroke="black" d="M308.12,-146.44C275,-135.94 229.4,-121.35 189.45,-108 184.22,-106.25 178.68,-104.37 173.29,-102.51"/>
<polygon fill="black" stroke="black" points="174.43,-99.2 163.84,-99.24 172.14,-105.82 174.43,-99.2"/>
</g>
<!-- queue -->
<g id="node5" class="node">
<title>queue</title>
<ellipse fill="none" stroke="black" cx="237.45" cy="-90" rx="38.99" ry="18"/>
<text text-anchor="middle" x="237.45" y="-86.3" font-family="sans-serif" font-size="14.00">queue</text>
</g>
<!-- orderedcollection&#45;&gt;queue -->
<g id="edge5" class="edge">
<title>orderedcollection&#45;&gt;queue</title>
<path fill="none" stroke="black" d="M327.31,-144.76C310.07,-134.45 287.66,-121.04 269.53,-110.2"/>
<polygon fill="black" stroke="black" points="270.87,-106.92 260.49,-104.79 267.28,-112.93 270.87,-106.92"/>
</g>
<!-- binarytree -->
<g id="node8" class="node">
<title>binarytree</title>
<ellipse fill="none" stroke="black" cx="354.45" cy="-90" rx="60.39" ry="18"/>
<text text-anchor="middle" x="354.45" y="-86.3" font-family="sans-serif" font-size="14.00">binary&#45;tree</text>
</g>
<!-- orderedcollection&#45;&gt;binarytree -->
<g id="edge4" class="edge">
<title>orderedcollection&#45;&gt;binarytree</title>
<path fill="none" stroke="black" d="M354.45,-143.7C354.45,-135.98 354.45,-126.71 354.45,-118.11"/>
<polygon fill="black" stroke="black" points="357.95,-118.1 354.45,-108.1 350.95,-118.1 357.95,-118.1"/>
</g>
<!-- stack -->
<g id="node12" class="node">
<title>stack</title>
<ellipse fill="none" stroke="black" cx="467.45" cy="-90" rx="34.39" ry="18"/>
<text text-anchor="middle" x="467.45" y="-86.3" font-family="sans-serif" font-size="14.00">stack</text>
</g>
<!-- orderedcollection&#45;&gt;stack -->
<g id="edge10" class="edge">
<title>orderedcollection&#45;&gt;stack</title>
<path fill="none" stroke="black" d="M380.94,-144.59C397.83,-134.13 419.75,-120.54 437.3,-109.67"/>
<polygon fill="black" stroke="black" points="439.38,-112.51 446.03,-104.26 435.69,-106.56 439.38,-112.51"/>
</g>
<!-- array -->
<g id="node7" class="node">
<title>array</title>
<ellipse fill="none" stroke="black" cx="34.45" cy="-18" rx="34.39" ry="18"/>
<text text-anchor="middle" x="34.45" y="-14.3" font-family="sans-serif" font-size="14.00">array</text>
</g>
<!-- list&#45;&gt;array -->
<g id="edge3" class="edge">
<title>list&#45;&gt;array</title>
<path fill="none" stroke="black" d="M121.98,-76.81C105.9,-66.19 82.31,-50.61 63.67,-38.3"/>
<polygon fill="black" stroke="black" points="65.51,-35.32 55.24,-32.73 61.65,-41.16 65.51,-35.32"/>
</g>
<!-- linkedlist -->
<g id="node11" class="node">
<title>linkedlist</title>
<ellipse fill="none" stroke="black" cx="140.45" cy="-18" rx="53.89" ry="18"/>
<text text-anchor="middle" x="140.45" y="-14.3" font-family="sans-serif" font-size="14.00">linked&#45;list</text>
</g>
<!-- list&#45;&gt;linkedlist -->
<g id="edge7" class="edge">
<title>list&#45;&gt;linkedlist</title>
<path fill="none" stroke="black" d="M140.45,-71.7C140.45,-63.98 140.45,-54.71 140.45,-46.11"/>
<polygon fill="black" stroke="black" points="143.95,-46.1 140.45,-36.1 136.95,-46.1 143.95,-46.1"/>
</g>
<!-- treeset -->
<g id="node4" class="node">
<title>treeset</title>
<ellipse fill="none" stroke="black" cx="565.45" cy="-90" rx="45.49" ry="18"/>
<text text-anchor="middle" x="565.45" y="-86.3" font-family="sans-serif" font-size="14.00">tree&#45;set</text>
</g>
<!-- deque -->
<g id="node9" class="node">
<title>deque</title>
<ellipse fill="none" stroke="black" cx="251.45" cy="-18" rx="38.99" ry="18"/>
<text text-anchor="middle" x="251.45" y="-14.3" font-family="sans-serif" font-size="14.00">deque</text>
</g>
<!-- queue&#45;&gt;deque -->
<g id="edge8" class="edge">
<title>queue&#45;&gt;deque</title>
<path fill="none" stroke="black" d="M240.84,-72.05C242.38,-64.35 244.24,-55.03 245.97,-46.36"/>
<polygon fill="black" stroke="black" points="249.46,-46.77 247.99,-36.28 242.6,-45.39 249.46,-46.77"/>
</g>
<!-- set&#45;&gt;treeset -->
<g id="edge6" class="edge">
<title>set&#45;&gt;treeset</title>
<path fill="none" stroke="black" d="M565.45,-143.7C565.45,-135.98 565.45,-126.71 565.45,-118.11"/>
<polygon fill="black" stroke="black" points="568.95,-118.1 565.45,-108.1 561.95,-118.1 568.95,-118.1"/>
</g>
<!-- hashset -->
<g id="node10" class="node">
<title>hashset</title>
<ellipse fill="none" stroke="black" cx="679.45" cy="-90" rx="50.09" ry="18"/>
<text text-anchor="middle" x="679.45" y="-86.3" font-family="sans-serif" font-size="14.00">hash&#45;set</text>
</g>
<!-- set&#45;&gt;hashset -->
<g id="edge9" class="edge">
<title>set&#45;&gt;hashset</title>
<path fill="none" stroke="black" d="M584.79,-149.13C601.72,-138.73 626.68,-123.4 646.72,-111.1"/>
<polygon fill="black" stroke="black" points="648.56,-114.08 655.25,-105.86 644.89,-108.11 648.56,-114.08"/>
</g>
</g>
</svg>
